<?xml version="1.0" ?>
<!-- Uploaded to: SVG Repo, www.svgrepo.com, Generator: SVG Repo Mixer Tools -->
<svg width="800px" height="800px" viewBox="-2.84 0 512 512" xmlns="http://www.w3.org/2000/svg">
<defs>
<style>.cls-1{fill:none;stroke:#000000;stroke-linecap:round;stroke-linejoin:round;stroke-width:20px;}</style>
</defs>
<g data-name="Layer 2" id="Layer_2">
<g data-name="E404, gear, Media, media player, multimedia" id="E404_gear_Media_media_player_multimedia">
<path class="cls-1" d="M373.59,340.89V299.52a18.84,18.84,0,0,0-18.84-18.84H333.48A18.92,18.92,0,0,1,316,268.91l-.1-.24a19,19,0,0,1,4-20.71l15-15a18.83,18.83,0,0,0,0-26.64L305.72,177a18.83,18.83,0,0,0-26.64,0l-15,15a19,19,0,0,1-20.71,4l-.24-.1a18.92,18.92,0,0,1-11.77-17.46V157.25a18.84,18.84,0,0,0-18.84-18.84H171.11a18.84,18.84,0,0,0-18.84,18.84v21.27A18.92,18.92,0,0,1,140.5,196l-.24.1a19,19,0,0,1-20.71-4l-15-15a18.83,18.83,0,0,0-26.64,0L48.62,206.28a18.83,18.83,0,0,0,0,26.64l15,15a19,19,0,0,1,4,20.71l-.1.24a18.92,18.92,0,0,1-17.46,11.77H28.84A18.84,18.84,0,0,0,10,299.52v41.37a18.84,18.84,0,0,0,18.84,18.84H50.11A18.92,18.92,0,0,1,67.57,371.5l.1.24a19,19,0,0,1-4,20.71l-15,15a18.83,18.83,0,0,0,0,26.64l29.25,29.25a18.83,18.83,0,0,0,26.64,0l15-15a19,19,0,0,1,20.71-4l.24.1a18.92,18.92,0,0,1,11.77,17.46v21.27A18.84,18.84,0,0,0,171.11,502h41.37a18.84,18.84,0,0,0,18.84-18.84V461.89a18.92,18.92,0,0,1,11.77-17.46l.24-.1a19,19,0,0,1,20.71,4l15,15a18.83,18.83,0,0,0,26.64,0L335,434.13a18.83,18.83,0,0,0,0-26.64l-15-15a19,19,0,0,1-4-20.71l.1-.24a18.92,18.92,0,0,1,17.46-11.77h21.27A18.84,18.84,0,0,0,373.59,340.89Z"/>
<circle class="cls-1" cx="191.8" cy="320.2" r="74.8"/>
<path class="cls-1" d="M207.45,138.41V138a15,15,0,0,1,15-15h16.9a15,15,0,0,0,13.88-9.35c0-.06.05-.13.08-.19A15.06,15.06,0,0,0,250.09,97l-12-11.94a15,15,0,0,1,0-21.17l23.24-23.24a15,15,0,0,1,21.16,0l11.95,12a15.07,15.07,0,0,0,16.45,3.18l.19-.08a15,15,0,0,0,9.36-13.88V25a15,15,0,0,1,15-15h32.87a15,15,0,0,1,15,15v16.9a15,15,0,0,0,9.35,13.88l.18.08a15.09,15.09,0,0,0,16.46-3.18l12-12a15,15,0,0,1,21.16,0l23.24,23.24a15,15,0,0,1,0,21.17L453.68,97a15.05,15.05,0,0,0-3.17,16.46l.07.19A15,15,0,0,0,464.45,123h16.9a15,15,0,0,1,15,15v32.86a15,15,0,0,1-15,15h-16.9a15,15,0,0,0-13.87,9.36l-.07.18a15,15,0,0,0,3.17,16.46l11.95,11.95a15,15,0,0,1,0,21.16l-23.24,23.24a15,15,0,0,1-21.16,0l-12-11.95a15,15,0,0,0-16.46-3.18l-.18.07A15,15,0,0,0,383.29,267v16.9a15,15,0,0,1-9.77,14"/>
<circle class="cls-1" cx="351.88" cy="154.43" r="48.69"/>
</g>
</g>
</svg>